<svg width="45" height="45" viewBox="0 0 45 45" fill="#F3DA6B" xmlns="http://www.w3.org/2000/svg">
<path d="M22.5 0C10.0934 0 0 10.0934 0 22.5C0 34.9066 10.0934 45 22.5 45C34.9066 45 45 34.9066 45 22.5C45 10.0934 34.9066 0 22.5 0ZM22.5 42.3633C11.5473 42.3633 2.63672 33.4527 2.63672 22.5C2.63672 11.5473 11.5473 2.63672 22.5 2.63672C33.4527 2.63672 42.3633 11.5473 42.3633 22.5C42.3633 33.4527 33.4527 42.3633 22.5 42.3633Z"/>
<path d="M22.5 23.7305C27.5886 23.7305 31.7285 19.5906 31.7285 14.502C31.7285 9.41335 27.5886 5.27344 22.5 5.27344C17.4114 5.27344 13.2715 9.41335 13.2715 14.502C13.2715 19.5906 17.4114 23.7305 22.5 23.7305ZM22.5 7.91016C26.1347 7.91016 29.0918 10.8672 29.0918 14.502C29.0918 18.1367 26.1347 21.0938 22.5 21.0938C18.8653 21.0938 15.9082 18.1367 15.9082 14.502C15.9082 10.8672 18.8653 7.91016 22.5 7.91016Z"/>
<path d="M37.323 29.4823C35.571 27.5026 33.0515 26.3672 30.4105 26.3672H14.5901C11.9491 26.3672 9.42956 27.5026 7.67764 29.4823L7.05273 30.1885L7.51908 31.0081C10.5792 36.3858 16.3197 39.7266 22.5003 39.7266C28.6809 39.7266 34.4214 36.3858 37.4816 31.008L37.948 30.1884L37.323 29.4823ZM22.5003 37.0898C17.6016 37.0898 13.0291 34.6116 10.3377 30.56C11.52 29.5623 13.0253 29.0039 14.5901 29.0039H30.4105C31.9753 29.0039 33.4806 29.5623 34.6629 30.56C31.9715 34.6116 27.399 37.0898 22.5003 37.0898Z" />
</svg>
