<svg width="48" height="48" viewBox="0 0 48 48" fill="#E5E4D9" xmlns="http://www.w3.org/2000/svg">
<mask id="mask0" style="mask-type:alpha" maskUnits="userSpaceOnUse" x="0" y="0" width="48" height="48">
<g clip-path="url(#clip0)">
<path d="M26.2849 2.48588L31.6919 13.4419C32.0679 14.2039 32.7949 14.7319 33.6359 14.8539L45.7269 16.6109C47.8449 16.9189 48.6899 19.5209 47.1579 21.0139L38.4089 29.5419C37.8009 30.1349 37.5229 30.9899 37.6669 31.8269L39.7319 43.8689C40.0939 45.9779 37.8799 47.5859 35.9859 46.5909L25.1719 40.9059C24.4199 40.5109 23.5209 40.5109 22.7689 40.9059L11.9549 46.5909C10.0609 47.5869 7.84688 45.9779 8.20888 43.8689L10.2739 31.8269C10.4179 30.9899 10.1399 30.1349 9.53188 29.5419L0.782879 21.0139C-0.749121 19.5199 0.0958788 16.9179 2.21388 16.6109L14.3049 14.8539C15.1459 14.7319 15.8729 14.2039 16.2489 13.4419L21.6559 2.48588C22.6019 0.566881 25.3379 0.566881 26.2849 2.48588Z"/>
</g>
</mask>
<g mask="url(#mask0)">
</g>
<g clip-path="url(#clip1)">
<path d="M26.2849 2.48588L31.6919 13.4419C32.0679 14.2039 32.7949 14.7319 33.6359 14.8539L45.7269 16.6109C47.8449 16.9189 48.6899 19.5209 47.1579 21.0139L38.4089 29.5419C37.8009 30.1349 37.5229 30.9899 37.6669 31.8269L39.7319 43.8689C40.0939 45.9779 37.8799 47.5859 35.9859 46.5909L25.1719 40.9059C24.4199 40.5109 23.5209 40.5109 22.7689 40.9059L11.9549 46.5909C10.0609 47.5869 7.84688 45.9779 8.20888 43.8689L10.2739 31.8269C10.4179 30.9899 10.1399 30.1349 9.53188 29.5419L0.782879 21.0139C-0.749121 19.5199 0.0958788 16.9179 2.21388 16.6109L14.3049 14.8539C15.1459 14.7319 15.8729 14.2039 16.2489 13.4419L21.6559 2.48588C22.6019 0.566881 25.3379 0.566881 26.2849 2.48588Z"/>
</g>
<defs>
<clipPath id="clip0">
<rect width="47.94" height="47.94"/>
</clipPath>
<clipPath id="clip1">
<rect width="47.94" height="47.94"/>
</clipPath>
</defs>
</svg>
